# xmcd
#
# Track frame offsets:
#	150
#	14505
#	27317
#	42924
#	56321
#	68889
#	81585
#	97037
#	108738
#	121695
#	136245
#	150156
#	162892
#	175095
#	187652
#	200910
#	211803
#	224918
#
# Disc length: 3189 seconds
#
# Revision: 0
# Processed by: cddbd v1.4PL0 Copyright (c) Steve Scherf et al.
# Submitted via: EasyCDDAExtractor 4.6.9.1
#
DISCID=fb0c7312
DTITLE=Sonny Boy Williamson - The Essential Sonny Boy Williamson [CD2]
DYEAR=1900
DGENRE=Blues
TTITLE0=Goodbye Red
TTITLE1=Been Dealing With The Devil
TTITLE2=Beauty Parlor
TTITLE3=You Got To Step Back
TTITLE4=Good Cat Blues
TTITLE5=Good Gravy
TTITLE6=Christmas Morning Blues
TTITLE7=Mellow Chick Swing
TTITLE8=No Friend Blues
TTITLE9=You Give An Account
TTITLE10=Coat And Iceman Blues
TTITLE11=Come On Baby And Take A Walk
TTITLE12=Elevator Woman
TTITLE13=Southern Dream
TTITLE14=Thinking My Blues Away
TTITLE15=Apple Tree Swing
TTITLE16=Livin' The Blues
TTITLE17=Willow Tree Gal
EXTD=
EXTT0=
EXTT1=
EXTT2=
EXTT3=
EXTT4=
EXTT5=
EXTT6=
EXTT7=
EXTT8=
EXTT9=
EXTT10=
EXTT11=
EXTT12=
EXTT13=
EXTT14=
EXTT15=
EXTT16=
EXTT17=
PLAYORDER=
